<svg id="Layer_1" data-name="Layer 1" xmlns="http://www.w3.org/2000/svg" viewBox="0 0 238 77"><defs><style>.cls-1{fill:#fffbf6;}.cls-2{fill:#473629;}.cls-3{fill:#ffccc1;}</style></defs><path class="cls-1" d="M43,75.5a32.5,32.5,0,0,1,0-65H204a32.5,32.5,0,0,1,0,65Z"/><path class="cls-2" d="M204,12a31,31,0,0,1,0,62H43a31,31,0,0,1,0-62H204m0-3H43A34,34,0,0,0,9,43H9A34,34,0,0,0,43,77H204a34,34,0,0,0,34-34h0A34,34,0,0,0,204,9Z"/><path class="cls-3" d="M34,66.5a32.5,32.5,0,0,1,0-65H195a32.5,32.5,0,0,1,0,65Z"/><path class="cls-2" d="M195,3a31,31,0,0,1,0,62H34A31,31,0,0,1,34,3H195m0-3H34A34,34,0,0,0,0,34H0A34,34,0,0,0,34,68H195a34,34,0,0,0,34-34h0A34,34,0,0,0,195,0Z"/></svg>