<svg id="Layer_1" data-name="Layer 1" xmlns="http://www.w3.org/2000/svg" viewBox="0 0 75.08 72"><defs><style>.cls-1{fill:#fffbf6;}.cls-2{fill:#473629;}.cls-3{fill:#ffccc1;}</style></defs><circle class="cls-1" cx="41.08" cy="38" r="33.5"/><path class="cls-2" d="M41,5A33,33,0,1,1,8,38,33,33,0,0,1,41,5m0-1h0A34,34,0,0,0,7,38H7A34,34,0,0,0,41,72h0A34,34,0,0,0,75,38h0A34,34,0,0,0,41,4Z" transform="translate(0.08)"/><circle class="cls-3" cx="34" cy="34" r="33.5"/><path class="cls-2" d="M33.92,1a33,33,0,1,1-33,33,33,33,0,0,1,33-33m0-1h0a34,34,0,0,0-34,34h0a34,34,0,0,0,34,34h0a34,34,0,0,0,34-34h0a34,34,0,0,0-34-34Z" transform="translate(0.08)"/><path class="cls-1" d="M15.92,24a5,5,0,0,1,0-10h36a5,5,0,0,1,0,10Z" transform="translate(0.08)"/><path class="cls-2" d="M51.92,14.5a4.5,4.5,0,0,1,0,9h-36a4.5,4.5,0,0,1,0-9h36m0-1h-36a5.5,5.5,0,0,0-5.5,5.5h0a5.5,5.5,0,0,0,5.5,5.5h36a5.5,5.5,0,0,0,5.5-5.5h0a5.5,5.5,0,0,0-5.5-5.5Z" transform="translate(0.08)"/><path class="cls-1" d="M15.92,39a5,5,0,0,1,0-10h36a5,5,0,0,1,0,10Z" transform="translate(0.08)"/><path class="cls-2" d="M51.92,29.5a4.5,4.5,0,0,1,0,9h-36a4.5,4.5,0,0,1,0-9h36m0-1h-36a5.5,5.5,0,0,0,0,11h36a5.5,5.5,0,0,0,0-11Z" transform="translate(0.08)"/><path class="cls-1" d="M15.92,54a5,5,0,0,1,0-10h36a5,5,0,0,1,0,10Z" transform="translate(0.08)"/><path class="cls-2" d="M51.92,44.5a4.5,4.5,0,0,1,0,9h-36a4.5,4.5,0,0,1,0-9h36m0-1h-36a5.5,5.5,0,0,0,0,11h36a5.5,5.5,0,0,0,0-11Z" transform="translate(0.08)"/></svg>