<svg id="Layer_1" data-name="Layer 1" xmlns="http://www.w3.org/2000/svg" viewBox="0 0 75.08 72"><defs><style>.cls-1{fill:#ffccc1;}.cls-2{fill:#473629;}.cls-3{fill:#fffbf6;}</style></defs><circle class="cls-1" cx="41.08" cy="38" r="33.5"/><path class="cls-2" d="M41,5A33,33,0,1,1,8,38,33,33,0,0,1,41,5m0-1h0A34,34,0,0,0,7,38H7A34,34,0,0,0,41,72h0A34,34,0,0,0,75,38h0A34,34,0,0,0,41,4Z" transform="translate(0.08)"/><circle class="cls-3" cx="34" cy="34" r="33.5"/><path class="cls-2" d="M33.92,1a33,33,0,1,1-33,33,33,33,0,0,1,33-33m0-1h0a34,34,0,0,0-34,34h0a34,34,0,0,0,34,34h0a34,34,0,0,0,34-34h0a34,34,0,0,0-34-34Z" transform="translate(0.08)"/><path class="cls-2" d="M46.64,51.73a4.94,4.94,0,0,1-3.53-1.47l-9.19-9.19-9.2,9.19a5,5,0,0,1-8.53-3.53,5,5,0,0,1,1.46-3.54L26.85,34l-9.2-9.19a5,5,0,0,1,3.54-8.54h0a4.94,4.94,0,0,1,3.53,1.47l9.2,9.19,9.19-9.19a4.94,4.94,0,0,1,3.53-1.47h0a4.94,4.94,0,0,1,3.54,1.47,5,5,0,0,1,0,7.07L41,34l9.19,9.19a5,5,0,0,1-3.54,8.54Z" transform="translate(0.08)"/><path class="cls-2" d="M46.64,16.77a4.5,4.5,0,0,1,3.19,7.68L41,33.29l-.71.71.71.71,8.84,8.84a4.5,4.5,0,0,1-6.37,6.36l-8.84-8.84-.7-.71-.71.71-8.84,8.84A4.5,4.5,0,1,1,18,43.55l8.84-8.84.7-.71-.7-.71L18,24.45a4.5,4.5,0,1,1,6.36-6.36l8.84,8.84.71.71.7-.71,8.84-8.84a4.47,4.47,0,0,1,3.18-1.32m0-1a5.48,5.48,0,0,0-3.88,1.61l-8.84,8.84-8.84-8.84a5.5,5.5,0,1,0-7.78,7.78L26.14,34,17.3,42.84a5.5,5.5,0,0,0,7.78,7.78l8.84-8.84,8.84,8.84a5.5,5.5,0,1,0,7.77-7.78L41.69,34l8.84-8.84a5.5,5.5,0,0,0-3.89-9.39Z" transform="translate(0.08)"/></svg>