<svg id="Layer_1" data-name="Layer 1" xmlns="http://www.w3.org/2000/svg" viewBox="0 0 68 68"><defs><style>.cls-1{fill:#fff0e5;}.cls-2{fill:#fffbf6;}.cls-3{fill:#473629;}</style></defs><circle class="cls-1" cx="34" cy="34" r="33.5"/><path class="cls-2" d="M33.92,1a33,33,0,1,1-33,33,33,33,0,0,1,33-33m0-1h0a34,34,0,0,0-34,34h0a34,34,0,0,0,34,34h0a34,34,0,0,0,34-34h0a34,34,0,0,0-34-34Z" transform="translate(0.08)"/><path class="cls-3" d="M17.91,43.91a1,1,0,0,1-.65-.27l-3.1-3.1a.92.92,0,0,1,0-1.3L32.85,20.55a.92.92,0,0,1,1.3,0L52.84,39.24a.92.92,0,0,1,0,1.3L50.2,43.18a.92.92,0,0,1-1.3,0L35.32,29.6A1.9,1.9,0,0,0,34,29a1.94,1.94,0,0,0-1.36.56l-14,14A.91.91,0,0,1,17.91,43.91Z" transform="translate(0.08)"/><path class="cls-3" d="M33.5,20.78a.42.42,0,0,1,.3.13L52.48,39.59a.42.42,0,0,1,0,.6l-2.63,2.63a.44.44,0,0,1-.3.13.42.42,0,0,1-.3-.13L35.68,29.25a2.43,2.43,0,0,0-3.43,0l-14,14a.45.45,0,0,1-.3.12.47.47,0,0,1-.3-.12l-3.09-3.1a.42.42,0,0,1,0-.6L33.2,20.91a.42.42,0,0,1,.3-.13m0-1a1.43,1.43,0,0,0-1,.42L13.81,38.88a1.42,1.42,0,0,0,0,2L16.91,44a1.41,1.41,0,0,0,2,0L33,30a1.39,1.39,0,0,1,1-.42A1.42,1.42,0,0,1,35,30L48.54,43.53a1.42,1.42,0,0,0,2,0l2.63-2.63a1.42,1.42,0,0,0,0-2L34.51,20.2a1.43,1.43,0,0,0-1-.42Z" transform="translate(0.08)"/></svg>