<svg id="Layer_1" data-name="Layer 1" xmlns="http://www.w3.org/2000/svg" viewBox="0 0 68 68"><defs><style>.cls-1{fill:#fffbf6;}.cls-2{fill:#db5e5f;}</style></defs><circle class="cls-1" cx="34" cy="34" r="33.5"/><path class="cls-2" d="M34,1A33,33,0,1,1,1,34,33,33,0,0,1,34,1m0-1h0A34,34,0,0,0,0,34H0A34,34,0,0,0,34,68h0A34,34,0,0,0,68,34h0A34,34,0,0,0,34,0Z" transform="translate(0)"/><path class="cls-2" d="M18,43.91a1,1,0,0,1-.65-.27l-3.1-3.1a.92.92,0,0,1,0-1.3L32.93,20.55a.92.92,0,0,1,1.3,0L52.92,39.24a.92.92,0,0,1,0,1.3l-2.64,2.64a.92.92,0,0,1-1.3,0L35.4,29.6a1.89,1.89,0,0,0-1.32-.6,1.92,1.92,0,0,0-1.36.56l-14,14A1,1,0,0,1,18,43.91Z" transform="translate(0)"/><path class="cls-2" d="M33.58,20.78a.43.43,0,0,1,.3.13L52.56,39.59a.41.41,0,0,1,0,.59h0l-2.63,2.63a.41.41,0,0,1-.6,0L35.76,29.25a2.44,2.44,0,0,0-3.43,0l-14,14a.42.42,0,0,1-.3.12.47.47,0,0,1-.3-.12l-3.09-3.1a.41.41,0,0,1,0-.59h0L33.28,20.91a.43.43,0,0,1,.3-.13m0-1a1.4,1.4,0,0,0-1,.42L13.89,38.88a1.42,1.42,0,0,0,0,2L17,44a1.42,1.42,0,0,0,2,0h0L33.08,30a1.4,1.4,0,0,1,2,0L48.62,43.53a1.42,1.42,0,0,0,2,0l2.63-2.63a1.42,1.42,0,0,0,0-2L34.59,20.2a1.4,1.4,0,0,0-1-.42Z" transform="translate(0)"/></svg>